<?xml version="1.0" encoding="utf-8"?>
<!DOCTYPE svg PUBLIC "-//W3C//DTD SVG 1.1//EN" "http://www.w3.org/Graphics/SVG/1.1/DTD/svg11.dtd">
<svg version="1.1" id="Layer_1" xmlns="http://www.w3.org/2000/svg" xmlns:xlink="http://www.w3.org/1999/xlink" x="0px" y="0px"
     width="12px" height="12px" viewBox="0 0 12 12" enable-background="new 0 0 12 12" xml:space="preserve">
<path fill="#666666" d="M6,0C2.702,0,0.017,2.692,0.017,6.002C0.017,9.309,2.701,12,6,12c3.299,0,5.982-2.69,5.982-5.998
    C11.982,2.692,9.299,0,6,0z M1.608,6.002c0-2.43,1.969-4.406,4.392-4.406c0.953,0,1.83,0.313,2.549,0.833L2.439,8.559
    C1.921,7.837,1.608,6.958,1.608,6.002z M6,10.404c-0.894,0-1.724-0.273-2.417-0.734l6.077-6.096
    c0.463,0.698,0.731,1.531,0.731,2.428C10.391,8.428,8.42,10.404,6,10.404z"/>
</svg>
