<?xml version="1.0" encoding="utf-8"?>
<!-- Generator: Adobe Illustrator 19.0.0, SVG Export Plug-In . SVG Version: 6.00 Build 0)  -->
<svg version="1.1" id="content" xmlns="http://www.w3.org/2000/svg" xmlns:xlink="http://www.w3.org/1999/xlink" x="0px" y="0px"
     viewBox="0 0 1500 256" style="enable-background:new 0 0 1500 256;" xml:space="preserve">
<style type="text/css">
    .st0{fill:#4285F4;}
    .st1{fill:#EA4335;}
    .st2{fill:#FBBC05;}
    .st3{fill:#34A853;}
    .st4{fill:none;}
    .st5{opacity:0.54;}
</style>
<symbol  id="logo_x5F_dark_2" viewBox="0 -136 416 136">
    <path id="XMLID_165_" class="st0" d="M0.723-52.565c0,28.929,24.321,52.482,53.251,52.482c16.001,0,27.394-6.272,35.97-14.465
        L79.831-24.66c-6.145,5.76-14.465,10.24-25.857,10.24c-21.121,0-37.634-17.025-37.634-38.146c0-21.121,16.513-38.146,37.634-38.146
        c13.696,0,21.505,5.504,26.497,10.497c4.097,4.096,6.784,9.984,7.809,18.049H53.974v14.336h48.258
        c0.513-2.56,0.769-5.632,0.769-8.96c0-10.752-2.944-24.065-12.417-33.538c-9.216-9.6-20.993-14.72-36.609-14.72
        C25.044-105.048,0.723-81.495,0.723-52.565z"/>
    <path id="XMLID_79_" class="st1" d="M142.001-37.461c-18.689,0-33.922-14.208-33.922-33.793c0-19.457,15.232-33.793,33.922-33.793
        c18.688,0,33.921,14.336,33.921,33.793C175.921-51.669,160.689-37.461,142.001-37.461z M142.001-91.735
        c-10.241,0-19.073,8.448-19.073,20.481c0,12.161,8.832,20.481,19.073,20.481c10.24,0,19.072-8.32,19.072-20.481
        C161.073-83.287,152.241-91.735,142.001-91.735z"/>
    <path id="XMLID_68_" class="st2" d="M216-37.461c-18.689,0-33.922-14.208-33.922-33.793c0-19.457,15.232-33.793,33.922-33.793
        c18.688,0,33.922,14.336,33.922,33.793C249.922-51.669,234.689-37.461,216-37.461z M216-91.735
        c-10.24,0-19.073,8.448-19.073,20.481c0,12.161,8.833,20.481,19.073,20.481s19.072-8.32,19.072-20.481
        C235.072-83.287,226.24-91.735,216-91.735z"/>
    <path id="XMLID_65_" class="st0" d="M306.83-39.509v-5.504h-0.512c-3.328,3.968-9.729,7.552-17.793,7.552
        c-16.896,0-32.386-14.849-32.386-33.921c0-18.945,15.489-33.666,32.386-33.666c8.064,0,14.465,3.584,17.793,7.68h0.512v-4.864
        c0-12.929-6.912-19.841-18.049-19.841c-9.088,0-14.721,6.528-17.024,12.032l-12.929-5.376c3.712-8.96,13.568-19.969,29.953-19.969
        c17.409,0,32.13,10.241,32.13,35.202v60.675H306.83z M289.806-91.735c-10.24,0-18.817,8.576-18.817,20.353
        c0,11.904,8.577,20.609,18.817,20.609c10.112,0,18.049-8.705,18.049-20.609C307.855-83.159,299.918-91.735,289.806-91.735z"/>
    <polygon id="XMLID_64_" class="st3" points="346,-103 331.151,-103 331.151,-3.667 346,-3.667     "/>
    <path id="XMLID_51_" class="st1" d="M386.706-91.735c-7.553,0-12.929,3.456-16.385,10.24l45.187,18.689l-1.536,3.84
        c-2.816,7.552-11.393,21.505-28.93,21.505c-17.409,0-31.873-13.697-31.873-33.793c0-18.945,14.336-33.793,33.537-33.793
        c15.488,0,24.449,9.472,28.161,14.977l-11.521,7.68C399.507-88.023,394.259-91.735,386.706-91.735z M385.554-50.517
        c5.889,0,10.881-2.944,12.545-7.168L367.89-70.23C367.505-57.174,378.002-50.517,385.554-50.517z"/>
    <polygon id="XMLID_50_" class="st4" points="0,-136 416,-136 416,0 0,0     "/>
</symbol>
<g>
    <g>
        <rect x="64" y="57" class="st4" width="1372" height="136"/>
        <g class="st5">
            <path d="M512.216,160V68.348h31.233c15.233,0,28.673,11.265,28.673,27.266c0,16-13.44,27.265-28.673,27.265h-19.457V160H512.216z
                 M543.706,111.614c10.496,0,16.385-8.705,16.385-16c0-7.297-5.889-16.001-16.385-16.001h-19.713v32.001H543.706z"/>
            <path d="M624.218,160v-8.704h-0.512c-3.457,5.76-11.265,10.752-19.841,10.752c-16.128,0-23.937-10.88-23.937-26.369V97.277
                h11.776v36.481c0,13.057,6.528,17.537,15.489,17.537c10.241,0,16.513-9.857,16.513-19.457V97.277h11.776V160H624.218z"/>
            <path d="M660.311,151.296h-0.512V160h-11.264V68.348h11.776v28.93l-0.512,8.704h0.512c3.584-5.76,11.393-10.752,21.377-10.752
                c15.873,0,29.826,14.208,29.826,33.41c0,19.201-13.953,33.409-29.826,33.409C671.704,162.048,663.896,157.056,660.311,151.296z
                 M699.737,128.639c0-14.081-9.472-22.657-19.969-22.657s-19.969,8.32-19.969,22.657c0,14.336,9.473,22.657,19.969,22.657
                S699.737,142.719,699.737,128.639z"/>
            <path d="M720.981,160V68.348h11.776V160H720.981z"/>
            <path d="M744.405,75.644c0-4.608,3.712-8.32,8.32-8.32c4.608,0,8.32,3.712,8.32,8.32c0,4.608-3.712,8.32-8.32,8.32
                C748.117,83.964,744.405,80.252,744.405,75.644z M746.837,160V97.277h11.776V160H746.837z"/>
            <path d="M767.955,144.127l10.497-4.352c3.328,7.937,9.472,11.777,17.024,11.777c7.296,0,12.545-3.584,12.545-8.833
                c0-3.2-1.92-6.656-8.577-8.32l-12.672-3.072c-5.76-1.408-16.769-6.4-16.769-17.409c0-11.393,11.777-18.689,24.833-18.689
                c10.88,0,20.353,4.992,24.193,14.593l-10.24,4.224c-2.432-5.888-8.192-8.32-14.337-8.32c-6.656,0-12.417,2.944-12.417,8.064
                c0,3.968,3.328,6.144,8.32,7.296l12.417,2.944c12.417,2.944,17.281,10.625,17.281,18.305c0,11.137-9.984,19.713-24.705,19.713
                C780.243,162.048,771.667,153.088,767.955,144.127z"/>
            <path d="M841.426,97.277l-0.512,8.704h0.512c3.328-5.76,11.265-10.752,19.841-10.752c16.001,0,23.938,10.88,23.938,26.369V160
                h-11.777v-36.61c0-13.056-6.528-17.409-15.489-17.409c-10.24,0-16.513,9.729-16.513,19.329V160h-11.776V68.348h11.776V97.277z"/>
            <path d="M894.16,128.639c0-17.793,12.289-33.41,30.722-33.41c18.689,0,30.721,13.185,30.721,33.41
                c0,0.896-0.128,2.176-0.128,2.176h-49.538c0.64,13.312,10.24,20.481,19.969,20.481c6.913,0,13.825-2.816,17.153-10.753
                l10.497,4.353c-3.712,8.96-12.929,17.152-27.394,17.152C906.96,162.048,894.16,147.583,894.16,128.639z M924.625,105.981
                c-8.705,0-15.617,5.888-17.921,15.104h36.354C942.674,115.582,938.066,105.981,924.625,105.981z"/>
            <path d="M965.072,160V97.277h11.264v10.24h0.512c2.56-7.168,11.648-11.776,18.177-11.776c3.84,0,6.4,0.512,8.833,1.536
                l-4.48,11.008c-1.664-0.64-3.712-0.896-6.272-0.896c-8.064,0-16.257,6.784-16.257,18.305V160H965.072z"/>
            <path d="M1057.198,160V79.612h-25.601V68.348h62.979v11.265h-25.602V160H1057.198z"/>
            <path d="M1154.223,128.639c0,19.073-13.44,33.409-32.257,33.409s-32.258-14.336-32.258-33.409
                c0-19.073,13.441-33.41,32.258-33.41S1154.223,109.565,1154.223,128.639z M1142.446,128.639c0-14.337-9.984-22.657-20.481-22.657
                s-20.481,8.32-20.481,22.657c0,14.336,9.984,22.657,20.481,22.657S1142.446,142.975,1142.446,128.639z"/>
            <path d="M1225.262,128.639c0,19.073-13.44,33.409-32.257,33.409s-32.258-14.336-32.258-33.409
                c0-19.073,13.441-33.41,32.258-33.41S1225.262,109.565,1225.262,128.639z M1213.486,128.639c0-14.337-9.984-22.657-20.481-22.657
                s-20.481,8.32-20.481,22.657c0,14.336,9.984,22.657,20.481,22.657S1213.486,142.975,1213.486,128.639z"/>
            <path d="M1234.731,160V68.348h11.776V160H1234.731z"/>
            <path d="M1271.339,151.296h-0.512V160h-11.265V68.348h11.776v28.93l-0.512,8.704h0.512c3.584-5.76,11.393-10.752,21.377-10.752
                c15.873,0,29.826,14.208,29.826,33.41c0,19.201-13.953,33.409-29.826,33.409C1282.731,162.048,1274.923,157.056,1271.339,151.296
                z M1310.765,128.639c0-14.081-9.472-22.657-19.969-22.657s-19.969,8.32-19.969,22.657c0,14.336,9.472,22.657,19.969,22.657
                S1310.765,142.719,1310.765,128.639z"/>
            <path d="M1329.064,141.055c0-14.208,12.801-21.889,27.521-21.889c8.448,0,14.593,2.432,17.025,3.84v-1.792
                c0-9.473-7.552-15.233-16.385-15.233c-6.528,0-12.801,3.2-14.977,9.088l-10.752-4.608c2.176-5.761,9.729-15.233,25.473-15.233
                c15.361,0,27.905,9.216,27.905,26.881V160h-11.264v-8.704h-0.512c-3.456,5.248-9.856,10.752-20.609,10.752
                C1339.689,162.048,1329.064,154.112,1329.064,141.055z M1373.611,132.991c0,0-4.992-4.096-14.977-4.096
                c-12.417,0-17.281,6.656-17.281,12.417c0,6.656,6.913,9.985,13.057,9.985C1363.754,151.296,1373.611,143.231,1373.611,132.991z"
                />
            <path d="M1396.904,160V97.277h11.265v10.24h0.512c2.56-7.168,11.648-11.776,18.177-11.776c3.84,0,6.4,0.512,8.833,1.536
                l-4.48,11.008c-1.664-0.64-3.712-0.896-6.272-0.896c-8.064,0-16.257,6.784-16.257,18.305V160H1396.904z"/>
        </g>

            <use xlink:href="#logo_x5F_dark_2"  width="416" height="136" id="XMLID_36_" x="0" y="-136" transform="matrix(1 0 0 -1 64 57)" style="overflow:visible;"/>
    </g>
    <rect class="st4" width="1500" height="256"/>
</g>
</svg>
