<?xml version="1.0" encoding="UTF-8" standalone="no"?>
<svg width="17px" height="17px" viewBox="0 0 17 17" version="1.1" xmlns="http://www.w3.org/2000/svg" xmlns:xlink="http://www.w3.org/1999/xlink" xmlns:sketch="http://www.bohemiancoding.com/sketch/ns">
    <title>Slice 1</title>
    <description>Created with Sketch (http://www.bohemiancoding.com/sketch)</description>
    <defs></defs>
    <g id="Page-1" stroke="none" stroke-width="1" fill="none" fill-rule="evenodd" sketch:type="MSPage">
        <g id="help" sketch:type="MSLayerGroup" transform="translate(0.000000, 1.000000)">
            <g id="Group" sketch:type="MSShapeGroup">
                <g>
                    <path d="M2.839,1.844 C5.964,-1.281 11.031,-1.281 14.156,1.844 C17.281,4.969 17.281,10.035 14.156,13.16 C11.475,15.841 7.371,16.215 4.283,14.298 L0.683,15.317 L1.701,11.716 C-0.216,8.629 0.159,4.523 2.839,1.844 L2.839,1.844 Z" id="Shape" fill="#666666"></path>
                    <circle id="Oval" fill="#FFFFFF" cx="8.5" cy="11.5" r="1"></circle>
                    <path d="M11.5,5.5 C11.5,3.843 10.156,2.5 8.5,2.5 C6.844,2.5 5.5,3.843 5.5,5.5 L7.5,5.5 C7.5,4.947 7.947,4.5 8.5,4.5 C9.053,4.5 9.5,4.947 9.5,5.5 C9.5,6.053 9.053,6.5 8.5,6.5 L7.5,6.5 L7.5,9.5 L9.5,9.5 L9.5,8.316 C10.662,7.903 11.5,6.805 11.5,5.5 L11.5,5.5 Z" id="Shape" fill="#FFFFFF"></path>
                    <circle id="Oval" fill="#666666" cx="8.5" cy="5.5" r="1"></circle>
                </g>
                <circle id="Oval" fill="#FFFFFF" cx="8.5" cy="11.5" r="1"></circle>
            </g>
        </g>
    </g>
</svg>
