<?xml version="1.0" encoding="UTF-8" standalone="no"?>
<svg
   xmlns:dc="http://purl.org/dc/elements/1.1/"
   xmlns:cc="http://creativecommons.org/ns#"
   xmlns:rdf="http://www.w3.org/1999/02/22-rdf-syntax-ns#"
   xmlns:svg="http://www.w3.org/2000/svg"
   xmlns="http://www.w3.org/2000/svg"
   xmlns:sodipodi="http://sodipodi.sourceforge.net/DTD/sodipodi-0.dtd"
   xmlns:inkscape="http://www.inkscape.org/namespaces/inkscape"
   viewBox="0 0 128 128"
   version="1.1"
   id="svg1718"
   sodipodi:docname="green_shield_checkmark_icon.svg"
   inkscape:version="0.92.2pre0 (973e216, 2017-07-25)">
  <metadata
     id="metadata1722">
    <rdf:RDF>
      <cc:Work
         rdf:about="">
        <dc:format>image/svg+xml</dc:format>
        <dc:type
           rdf:resource="http://purl.org/dc/dcmitype/StillImage" />
        <dc:title>Green-NoCheckmark</dc:title>
      </cc:Work>
    </rdf:RDF>
  </metadata>
  <sodipodi:namedview
     pagecolor="#ffffff"
     bordercolor="#666666"
     borderopacity="1"
     objecttolerance="10"
     gridtolerance="10"
     guidetolerance="10"
     inkscape:pageopacity="0"
     inkscape:pageshadow="2"
     inkscape:window-width="1205"
     inkscape:window-height="720"
     id="namedview1720"
     showgrid="false"
     inkscape:zoom="1.84375"
     inkscape:cx="64"
     inkscape:cy="54.904906"
     inkscape:window-x="0"
     inkscape:window-y="0"
     inkscape:window-maximized="0"
     inkscape:current-layer="svg1718" />
  <defs
     id="defs1696">
    <style
       id="style1684">.cls-1{fill:none;}.cls-2{fill:#ceead6;}.cls-3{isolation:isolate;}.cls-4{fill:#34a853;}.cls-5{clip-path:url(#clip-path);}.cls-6{clip-path:url(#clip-path-2);}.cls-7{opacity:0.27;mix-blend-mode:multiply;fill:url(#linear-gradient);}.cls-8{fill:#188038;}</style>
    <clipPath
       id="clip-path">
      <path
         id="Shield_Shape_96dp"
         data-name="Shield Shape 96dp"
         class="cls-1"
         d="M59.24,111.19C84.39,99.37,107.7,93.46,110,78c.49-3.26,0-25.92,0-28,0-1-13.52-23.24-13.52-23.24l-37.24-10L22,26.76V53.05a93.6,93.6,0,0,0,.8,10.45C25.1,79,34.08,99.37,59.24,111.19Z" />
    </clipPath>
    <clipPath
       id="clip-path-2">
      <path
         class="cls-2"
         d="M84,87H13V42H84a23.3,23.3,0,0,1,23,23h0C107,77.47,96.47,87,84,87Z"
         id="path1688" />
    </clipPath>
    <linearGradient
       id="linear-gradient"
       x1="16"
       y1="68.41"
       x2="52.7"
       y2="68.41"
       gradientUnits="userSpaceOnUse">
      <stop
         offset="0.49"
         stop-color="#34a853"
         id="stop1691" />
      <stop
         offset="1"
         stop-color="#fff"
         id="stop1693" />
    </linearGradient>
    <clipPath
       id="clip-path-3">
      <path
         inkscape:connector-curvature="0"
         id="Shield_Shape_96dp-6"
         data-name="Shield Shape 96dp"
         class="cls-1"
         d="M 59.24,111.19 C 84.39,99.37 107.7,93.46 110,78 c 0.49,-3.26 0,-25.92 0,-28 0,-1 -13.52,-23.24 -13.52,-23.24 l -37.24,-10 -37.24,10 v 26.29 a 93.6,93.6 0 0 0 0.8,10.45 c 2.3,15.5 11.28,35.87 36.44,47.69 z" />
    </clipPath>
    <clipPath
       id="clip-path-2-7">
      <path
         inkscape:connector-curvature="0"
         class="cls-2"
         d="M 84,87 H 13 V 42 h 71 a 23.3,23.3 0 0 1 23,23 v 0 c 0,12.47 -10.53,22 -23,22 z"
         id="path6721" />
    </clipPath>
    <linearGradient
       id="linear-gradient-5"
       x1="16"
       y1="68.410004"
       x2="52.700001"
       y2="68.410004"
       gradientUnits="userSpaceOnUse">
      <stop
         offset="0.49"
         stop-color="#34a853"
         id="stop6724" />
      <stop
         offset="1"
         stop-color="#fff"
         id="stop6726" />
    </linearGradient>
  </defs>
  <title
     id="title1698">Green-NoCheckmark</title>
  <path
     id="Shield_Shape_96dp-2"
     data-name="Shield Shape 96dp"
     class="cls-4"
     d="M 53.050188,124.05778 C 86.554772,108.3113 98.517844,81.17457 101.58188,60.525619 c 0.62529,-4.616046 0.98557,-9.264127 1.07909,-13.921391 0,-1.332189 -0.63946,-34.636956 -0.63946,-34.636956 L 53.050188,2.6651291 3.4394093,11.580937 v 35.023291 c 0.094965,4.656726 0.4507719,9.304475 1.0657469,13.921391 C 7.5692041,81.17457 19.532265,108.3113 53.050188,124.05778 Z"
     inkscape:connector-curvature="0"
     style="isolation:isolate;fill:#34a853;stroke-width:1.33219063"
     sodipodi:nodetypes="ccccccccc" />
  <g
     style="isolation:isolate"
     class="cls-5"
     clip-path="url(#clip-path)"
     id="g6744"
     transform="matrix(1.3321906,0,0,1.3321906,-25.868784,-24.068483)">
    <path
       class="cls-2"
       d="M 84,87 H 13 V 42 h 71 a 23.3,23.3 0 0 1 23,23 v 0 c 0,12.47 -10.53,22 -23,22 z"
       id="path6734"
       inkscape:connector-curvature="0"
       style="fill:#ceead6" />
    <g
       class="cls-6"
       clip-path="url(#clip-path-2)"
       id="g6738">
      <path
         class="cls-7"
         d="m 29,32 c 0,0 -0.6,21 -0.3,26 0.3,5 3.3,35 10.3,44 5,6.36 -23,0 -23,0 V 32 Z"
         id="path6736"
         style="opacity:0.27000002;mix-blend-mode:multiply;fill:url(#linear-gradient-5)"
         inkscape:connector-curvature="0" />
    </g>
    <path
       class="cls-8"
       d="m 20.31,73.05 5.69,-7.76 -0.15,-0.6 -8.44,-2.87 1.73,-5 8.29,2.94 0.45,-0.15 v -9 h 5.35 v 9 l 0.38,0.15 8.39,-2.99 1.73,5 -8.44,2.87 -0.23,0.6 5.81,7.76 -4.38,3.17 -5.65,-7.76 h -0.53 l -5.65,7.76 z"
       id="path6740"
       inkscape:connector-curvature="0"
       style="fill:#188038" />
    <path
       class="cls-8"
       d="m 54.56,73.05 5.73,-7.76 -0.15,-0.6 -8.44,-2.87 1.73,-5 8.29,2.94 0.45,-0.15 v -9 h 5.35 v 9 l 0.38,0.15 8.37,-2.94 1.73,5 -8.44,2.87 -0.23,0.6 5.81,7.76 -4.38,3.17 -5.65,-7.76 h -0.53 l -5.65,7.76 z"
       id="path6742"
       inkscape:connector-curvature="0"
       style="fill:#188038" />
  </g>
  <rect
     class="cls-4"
     x="87.367424"
     y="37.212273"
     width="7.9931431"
     height="46.626667"
     id="rect6746"
     style="isolation:isolate;fill:#34a853;stroke-width:1.33219063" />
  <path
     class="cls-9"
     d="m 90.854239,67.01593 a 26.22445,26.22445 0 1 1 -26.22445,26.22445 26.22445,26.22445 0 0 1 26.22445,-26.22445 m 0,-8.56665 a 34.791103,34.791103 0 1 0 34.791101,34.7911 34.826069,34.826069 0 0 0 -34.791101,-34.7911 z"
     id="path6750"
     inkscape:connector-curvature="0"
     style="isolation:isolate;fill:#ffffff;stroke-width:1.16553116" />
  <circle
     class="cls-4"
     cx="90.854248"
     cy="93.240379"
     r="28.87483"
     id="circle6748"
     style="isolation:isolate;fill:#34a853;stroke-width:1.10335624" />
  <polygon
     class="cls-9"
     points="111.73,88.15 108.02,84.44 92.48,100.08 87.22,94.84 83.64,98.77 92.62,107.72 "
     id="polygon6752"
     style="isolation:isolate;fill:#ffffff"
     transform="matrix(1.4451048,0,0,1.4451048,-49.924799,-45.431258)" />
</svg>
