<?xml version="1.0" encoding="UTF-8" standalone="no"?>
<svg
   xmlns:dc="http://purl.org/dc/elements/1.1/"
   xmlns:cc="http://creativecommons.org/ns#"
   xmlns:rdf="http://www.w3.org/1999/02/22-rdf-syntax-ns#"
   xmlns:svg="http://www.w3.org/2000/svg"
   xmlns="http://www.w3.org/2000/svg"
   xmlns:sodipodi="http://sodipodi.sourceforge.net/DTD/sodipodi-0.dtd"
   xmlns:inkscape="http://www.inkscape.org/namespaces/inkscape"
   viewBox="0 0 128 128"
   version="1.1"
   id="svg6084"
   sodipodi:docname="red_shield.svg"
   inkscape:version="0.92.2pre0 (973e216, 2017-07-25)">
  <metadata
     id="metadata6088">
    <rdf:RDF>
      <cc:Work
         rdf:about="">
        <dc:format>image/svg+xml</dc:format>
        <dc:type
           rdf:resource="http://purl.org/dc/dcmitype/StillImage" />
      </cc:Work>
    </rdf:RDF>
  </metadata>
  <sodipodi:namedview
     pagecolor="#ffffff"
     bordercolor="#666666"
     borderopacity="1"
     objecttolerance="10"
     gridtolerance="10"
     guidetolerance="10"
     inkscape:pageopacity="0"
     inkscape:pageshadow="2"
     inkscape:window-width="1920"
     inkscape:window-height="1165"
     id="namedview6086"
     showgrid="false"
     inkscape:zoom="1.84375"
     inkscape:cx="64"
     inkscape:cy="64"
     inkscape:window-x="1920"
     inkscape:window-y="0"
     inkscape:window-maximized="1"
     inkscape:current-layer="svg6084" />
  <defs
     id="defs6054">
    <style
       id="style6042">.cls-1{fill:none;}.cls-2{fill:#fad2cf;}.cls-3{isolation:isolate;}.cls-4{fill:#ea4335;}.cls-5{clip-path:url(#clip-path);}.cls-6{clip-path:url(#clip-path-2);}.cls-7{opacity:0.27;mix-blend-mode:multiply;fill:url(#linear-gradient);}.cls-8{fill:#c5221f;}.cls-9{fill:#fff;}</style>
    <clipPath
       id="clip-path">
      <path
         id="Shield_Shape_96dp"
         data-name="Shield Shape 96dp"
         class="cls-1"
         d="M59.24,111.19C84.39,99.37,107.7,93.46,110,78c.49-3.26,0-25.92,0-28,0-1-13.52-23.24-13.52-23.24l-37.24-10L22,26.76V53.05a93.6,93.6,0,0,0,.8,10.45C25.1,79,34.08,99.37,59.24,111.19Z" />
    </clipPath>
    <clipPath
       id="clip-path-2">
      <path
         class="cls-2"
         d="M84,87H13V42H84a23.3,23.3,0,0,1,23,23h0C107,77.47,96.47,87,84,87Z"
         id="path6046" />
    </clipPath>
    <linearGradient
       id="linear-gradient"
       x1="16"
       y1="68.41"
       x2="52.7"
       y2="68.41"
       gradientUnits="userSpaceOnUse">
      <stop
         offset="0.41"
         stop-color="#ea4335"
         id="stop6049" />
      <stop
         offset="1"
         stop-color="#fff"
         id="stop6051" />
    </linearGradient>
  </defs>
  <title
     id="title6056">Red-Checkmark</title>
  <path
     id="Shield_Shape_96dp-2"
     data-name="Shield Shape 96dp"
     class="cls-4"
     d="M 46.368426,111.1651 C 75.558612,97.446295 85.981192,73.803984 88.650672,55.814009 a 106.24532,106.24532 0 0 0 0.940122,-12.128726 c 0,-1.160644 -0.557109,-30.176734 -0.557109,-30.176734 L 46.368426,1.6235589 3.1460582,13.171963 v 30.51332 A 108.63624,108.63624 0 0 0 4.0745731,55.814009 C 6.7440534,73.803984 17.166633,97.446295 46.368426,111.1651 Z"
     inkscape:connector-curvature="0"
     style="isolation:isolate;fill:#ea4335;stroke-width:1.16064358" />
  <g
     style="isolation:isolate"
     class="cls-5"
     clip-path="url(#clip-path)"
     id="g6069"
     transform="matrix(1.1606436,0,0,1.1606436,-22.388101,-17.88686)">
    <path
       class="cls-2"
       d="M 84,87 H 13 V 42 h 71 a 23.3,23.3 0 0 1 23,23 v 0 c 0,12.47 -10.53,22 -23,22 z"
       id="path6059"
       inkscape:connector-curvature="0"
       style="fill:#fad2cf" />
    <g
       class="cls-6"
       clip-path="url(#clip-path-2)"
       id="g6063">
      <path
         class="cls-7"
         d="m 29,32 c 0,0 -0.6,21 -0.3,26 0.3,5 3.3,35 10.3,44 5,6.36 -23,0 -23,0 V 32 Z"
         id="path6061"
         style="opacity:0.27000002;mix-blend-mode:multiply;fill:url(#linear-gradient)"
         inkscape:connector-curvature="0" />
    </g>
    <path
       class="cls-8"
       d="m 20.31,73.05 5.69,-7.76 -0.15,-0.6 -8.44,-2.87 1.73,-5 8.29,2.94 0.45,-0.15 v -9 h 5.35 v 9 l 0.38,0.15 8.39,-2.99 1.73,5 -8.44,2.87 -0.23,0.6 5.81,7.76 -4.38,3.17 -5.65,-7.76 h -0.53 l -5.65,7.76 z"
       id="path6065"
       inkscape:connector-curvature="0"
       style="fill:#c5221f" />
    <path
       class="cls-8"
       d="m 54.56,73.05 5.73,-7.76 -0.15,-0.6 -8.44,-2.87 1.73,-5 8.29,2.94 0.45,-0.15 v -9 h 5.35 v 9 l 0.38,0.15 8.37,-2.94 1.73,5 -8.44,2.87 -0.23,0.6 5.81,7.76 -4.38,3.17 -5.65,-7.76 h -0.53 l -5.65,7.76 z"
       id="path6067"
       inkscape:connector-curvature="0"
       style="fill:#c5221f" />
  </g>
  <rect
     class="cls-4"
     x="76.266602"
     y="35.502747"
     width="6.9638615"
     height="40.622524"
     id="rect6071"
     style="isolation:isolate;fill:#ea4335;stroke-width:1.16064358" />
  <circle
     class="cls-4"
     cx="90.194328"
     cy="92.374283"
     r="30.374043"
     id="circle6073"
     style="isolation:isolate;fill:#ea4335;stroke-width:1.16064358" />
  <path
     class="cls-9"
     d="M 90.194328,66.259801 A 26.114481,26.114481 0 1 1 64.079847,92.374282 26.114481,26.114481 0 0 1 90.194328,66.259801 m 0,-8.53073 A 34.645211,34.645211 0 1 0 124.83954,92.374282 34.680031,34.680031 0 0 0 90.194328,57.729071 Z"
     id="path6075"
     inkscape:connector-curvature="0"
     style="isolation:isolate;fill:#ffffff;stroke-width:1.16064358" />
  <rect
     class="cls-9"
     x="87.292717"
     y="101.65943"
     width="8.124505"
     height="9.2851486"
     id="rect6077"
     style="isolation:isolate;fill:#ffffff;stroke-width:1.16064358" />
  <rect
     class="cls-9"
     x="87.292717"
     y="75.544952"
     width="8.124505"
     height="19.730942"
     id="rect6079"
     style="isolation:isolate;fill:#ffffff;stroke-width:1.16064358" />
</svg>
